<?xml version="1.0" standalone="no"?>
<!DOCTYPE svg PUBLIC "-//W3C//DTD SVG 20010904//EN"
 "http://www.w3.org/TR/2001/REC-SVG-20010904/DTD/svg10.dtd">
<svg version="1.0" xmlns="http://www.w3.org/2000/svg"
 width="260.000000pt" height="260.000000pt" viewBox="0 0 260.000000 260.000000"
 preserveAspectRatio="xMidYMid meet">
<metadata>
Created by potrace 1.14, written by Peter Selinger 2001-2017
</metadata>
<g transform="translate(0.000000,260.000000) scale(0.100000,-0.100000)"
fill="#000000" stroke="none">
<path d="M0 1300 l0 -1300 1300 0 1300 0 0 1300 0 1300 -1300 0 -1300 0 0
-1300z m934 548 c42 -97 142 -172 291 -218 39 -12 118 -39 177 -61 124 -46
145 -45 182 12 14 21 40 46 56 54 17 9 28 20 25 25 -4 6 0 19 8 30 12 18 16
18 26 6 11 -13 0 -28 -64 -91 -47 -47 -75 -83 -73 -93 7 -36 37 -21 111 55 61
62 79 75 89 65 10 -10 -1 -25 -52 -77 -35 -36 -70 -65 -77 -65 -18 0 -16 -25
3 -41 13 -10 19 -10 36 0 20 12 21 11 15 -17 -4 -18 -1 -37 8 -48 13 -18 14
-18 34 0 26 24 41 13 18 -12 -10 -10 -17 -31 -17 -46 0 -16 -4 -25 -10 -21
-12 7 -13 -25 -1 -43 6 -10 10 -8 15 10 10 30 20 6 12 -27 -11 -42 -32 -28
-51 31 -20 66 -54 107 -128 158 -48 33 -208 96 -244 96 -9 0 -45 11 -82 24
-212 77 -295 138 -356 260 -27 54 -33 114 -13 134 10 10 15 7 25 -15 6 -15 23
-54 37 -85z m826 57 c14 -17 15 -115 2 -142 -6 -10 -15 -30 -23 -45 -7 -16
-16 -28 -20 -28 -11 0 -19 42 -10 59 4 9 14 43 21 75 11 46 11 61 2 64 -17 5
-15 32 2 32 7 0 19 -7 26 -15z m89 -140 c-15 -65 -56 -132 -72 -116 -8 8 -8
14 -2 19 20 14 38 78 36 129 -1 29 4 63 10 75 12 22 13 21 26 -17 11 -32 11
-50 2 -90z m-1024 23 c28 -78 67 -131 121 -169 51 -35 195 -99 222 -99 28 0
281 -106 322 -135 73 -50 111 -95 104 -118 -6 -19 -5 -20 8 -9 13 10 17 8 28
-17 7 -17 9 -40 4 -53 -6 -20 -5 -21 10 -9 19 16 22 1 6 -30 -7 -13 -7 -19 0
-19 5 0 10 -7 10 -15 0 -53 90 51 154 178 20 39 24 42 69 45 26 2 47 1 47 -2
0 -18 -71 -131 -120 -190 -49 -61 -207 -218 -251 -251 -64 -49 -150 -100 -225
-135 -49 -23 -97 -46 -106 -51 -10 -5 -25 -9 -33 -9 -9 0 -28 -6 -43 -14 -15
-8 -46 -17 -67 -21 l-40 -6 55 30 c30 17 71 35 90 42 19 7 52 23 72 36 21 12
42 23 48 23 8 0 120 73 149 97 8 6 8 62 -1 57 -4 -3 -13 7 -18 23 -52 145
-161 213 -460 289 -107 27 -219 79 -276 128 -63 55 -106 136 -108 203 -1 76
17 79 44 6 56 -152 150 -216 485 -328 44 -15 112 -43 150 -62 79 -39 165 -114
141 -123 -11 -4 -12 -9 -6 -20 8 -12 12 -12 18 -2 10 15 56 -47 66 -90 4 -16
12 -28 18 -28 18 0 60 52 49 59 -14 9 -31 59 -25 74 2 7 -7 24 -21 37 -14 13
-25 29 -25 35 0 35 -155 133 -260 164 -25 7 -56 17 -70 22 -14 4 -59 17 -102
28 -147 39 -262 105 -319 183 -34 48 -64 133 -53 156 4 9 6 25 5 36 -6 41 25
6 46 -54 42 -117 116 -180 280 -240 355 -129 387 -144 464 -223 42 -43 49 -55
44 -78 -4 -16 -1 -30 6 -35 7 -4 10 -3 5 4 -3 6 -2 13 3 17 16 9 33 -34 26
-68 -4 -23 -3 -28 4 -17 9 12 11 12 17 -3 8 -21 30 -22 38 -2 3 8 14 15 25 15
23 0 20 19 -10 57 -23 30 -34 94 -18 103 6 4 8 13 4 20 -6 9 -9 9 -15 -1 -6
-9 -23 4 -60 45 -39 42 -74 67 -135 96 -45 22 -90 40 -100 40 -10 0 -32 4 -49
10 -17 5 -69 21 -116 36 -47 15 -118 42 -158 61 -122 59 -222 189 -222 289 0
65 28 56 55 -18z m1105 36 c28 -73 -1 -151 -96 -252 -42 -45 -81 -82 -85 -82
-19 0 -6 23 44 78 76 83 129 201 108 241 -15 27 -14 41 4 41 9 0 20 -12 25
-26z m84 -30 c26 -25 31 -64 12 -93 -9 -14 -25 -44 -35 -66 -17 -35 -186 -215
-211 -223 -26 -9 -4 21 63 86 93 89 137 172 137 256 0 58 8 67 34 40z"/>
<path d="M1445 1013 c4 -10 10 -26 12 -35 3 -10 9 -18 14 -18 12 0 12 2 -7 38
-16 34 -31 45 -19 15z"/>
</g>
</svg>
